<svg width="33" height="33" viewBox="0 0 33 33" fill="none" xmlns="http://www.w3.org/2000/svg">
<circle cx="16.5" cy="16.5" r="16.5" fill="#212121"/>
<path d="M17.2197 6.21741H17.2149C11.9409 6.21741 7.6521 10.5074 7.6521 15.7826C7.6521 17.875 8.32645 19.8144 9.47308 21.389L8.28101 24.9425L11.9576 23.7672C13.4701 24.7691 15.2744 25.3478 17.2197 25.3478C22.4937 25.3478 26.7825 21.0566 26.7825 15.7826C26.7825 10.5086 22.4937 6.21741 17.2197 6.21741ZM22.7855 19.7247C22.5547 20.3763 21.6388 20.9168 20.9083 21.0746C20.4085 21.181 19.7557 21.2659 17.5581 20.3548C14.7471 19.1902 12.9369 16.3338 12.7958 16.1485C12.6607 15.9632 11.6599 14.636 11.6599 13.2634C11.6599 11.8908 12.357 11.2224 12.638 10.9355C12.8687 10.6999 13.2501 10.5923 13.616 10.5923C13.7344 10.5923 13.8408 10.5983 13.9364 10.6031C14.2174 10.615 14.3585 10.6318 14.5438 11.0753C14.7746 11.6313 15.3366 13.0039 15.4035 13.145C15.4717 13.2861 15.5398 13.4774 15.4442 13.6627C15.3545 13.854 15.2756 13.9389 15.1345 14.1015C14.9934 14.2641 14.8595 14.3885 14.7184 14.5631C14.5893 14.7149 14.4434 14.8775 14.606 15.1585C14.7686 15.4335 15.3306 16.3506 16.158 17.0871C17.2257 18.0376 18.0913 18.3413 18.401 18.4705C18.6318 18.5661 18.9068 18.5434 19.0754 18.364C19.2894 18.1333 19.5536 17.7507 19.8226 17.374C20.0139 17.1038 20.2555 17.0703 20.5089 17.166C20.7672 17.2557 22.1338 17.9312 22.4148 18.0711C22.6958 18.2122 22.8811 18.2791 22.9493 18.3975C23.0162 18.5159 23.0162 19.0719 22.7855 19.7247Z" fill="white"/>
</svg>
